<?xml version="1.0" standalone="no"?>
<!DOCTYPE svg PUBLIC "-//W3C//DTD SVG 20010904//EN"
 "http://www.w3.org/TR/2001/REC-SVG-20010904/DTD/svg10.dtd">
<svg version="1.0" xmlns="http://www.w3.org/2000/svg"
 width="1126.000000pt" height="1126.000000pt" viewBox="0 0 1126.000000 1126.000000"
 preserveAspectRatio="xMidYMid meet">
<metadata>
Created by potrace 1.11, written by Peter Selinger 2001-2013
</metadata>
<g transform="translate(0.000000,1126.000000) scale(0.100000,-0.100000)"
fill="#000000" stroke="none">
<path d="M4280 9640 c-14 -4 -56 -17 -95 -28 -38 -12 -101 -30 -140 -42 -215
-63 -662 -192 -677 -195 -9 -2 -72 -20 -140 -40 -169 -51 -359 -105 -383 -110
-11 -3 -31 -9 -45 -15 -14 -5 -65 -21 -115 -34 -168 -46 -440 -126 -455 -135
-13 -7 -15 -276 -15 -2327 l0 -2318 30 -26 c16 -14 44 -39 62 -56 18 -18 33
-30 33 -26 0 3 9 -6 21 -19 11 -13 41 -47 67 -75 26 -28 58 -64 72 -80 54 -63
150 -215 200 -320 29 -60 56 -117 61 -126 5 -10 9 -27 9 -37 0 -11 4 -22 9
-25 7 -5 32 -86 36 -116 0 -3 4 -11 8 -17 5 -7 6 -13 3 -13 -2 0 0 -15 5 -32
5 -18 12 -46 14 -63 3 -16 8 -43 11 -59 5 -21 364 -386 1390 -1412 l1384
-1384 1370 1372 c1064 1067 1370 1379 1371 1398 0 14 2 32 4 40 1 8 6 35 10
60 4 24 8 47 10 51 2 3 7 21 10 40 5 27 18 78 30 119 1 3 7 18 13 33 7 16 12
32 12 36 0 12 44 113 88 200 39 80 138 234 153 239 5 2 9 8 9 14 0 12 136 164
191 215 20 18 60 52 88 74 l51 41 0 2298 0 2299 -22 7 c-13 5 -26 9 -30 10 -5
1 -9 2 -10 4 -2 1 -10 3 -18 5 -8 1 -116 32 -240 68 -124 36 -297 87 -385 112
-88 26 -214 62 -280 82 -66 19 -158 46 -205 59 -47 13 -209 60 -360 104 -151
45 -295 87 -320 94 -25 7 -88 25 -142 40 l-96 28 -94 -93 c-100 -101 -168
-161 -168 -151 0 4 -4 2 -8 -4 -4 -7 -38 -33 -77 -58 -38 -25 -74 -49 -80 -54
-5 -4 -27 -17 -48 -27 -22 -11 -55 -28 -75 -39 -68 -35 -226 -95 -307 -116
-150 -39 -248 -53 -410 -55 -264 -5 -494 40 -718 139 -31 14 -59 25 -61 23 -2
-1 -13 7 -25 17 -12 11 -21 16 -21 12 0 -8 -164 94 -168 105 -2 5 -8 9 -14 9
-6 0 -23 10 -38 23 -15 12 -43 33 -61 47 -19 14 -78 69 -132 123 -54 53 -103
97 -110 96 -7 0 -23 -4 -37 -9z"/>
</g>
</svg>
